<svg width="16" height="16" viewBox="0 0 16 16" fill="none" xmlns="http://www.w3.org/2000/svg">
<rect width="16" height="16" rx="8" fill="#1440FF"/>
<path d="M7.96605 7.60352C8.45036 7.60352 8.73376 8.14851 8.45625 8.54503L8.28127 8.79543L7.02984 10.583H5.57574L6.68812 8.99457C6.74704 8.91032 6.68694 8.79543 6.58442 8.79543H5.02957C4.82689 8.79543 4.63718 8.89441 4.52111 9.05997L3.45469 10.583H2L3.25201 8.79543L3.37161 8.62457L3.55249 8.36592C3.88715 7.88809 4.43391 7.60352 5.0172 7.60352H7.96664H7.96605Z" fill="white"/>
<path d="M13.5508 7.60352L12.7165 8.79543H10.4847C10.3209 8.79543 10.1671 8.87556 10.0734 9.0093L8.97168 10.583H7.51758L8.76959 8.79543L8.88919 8.62457L9.11014 8.30877C9.42005 7.86688 9.92556 7.60352 10.4653 7.60352H13.5514H13.5508Z" fill="white"/>
<path d="M14.6779 6L13.8436 7.19191H4.50391L4.80439 6.7624C5.13963 6.28457 5.6858 6 6.26909 6H14.6773H14.6779Z" fill="white"/>
</svg>
